<?xml version="1.0" encoding="utf-8"?>
<!-- Generator: Adobe Illustrator 17.1.0, SVG Export Plug-In . SVG Version: 6.00 Build 0)  -->
<!DOCTYPE svg PUBLIC "-//W3C//DTD SVG 1.1//EN" "http://www.w3.org/Graphics/SVG/1.1/DTD/svg11.dtd">
<svg version="1.1" id="Layer_1" xmlns="http://www.w3.org/2000/svg" xmlns:xlink="http://www.w3.org/1999/xlink" x="0px" y="0px"
	 viewBox="0 0 111.648 95.509" enable-background="new 0 0 111.648 95.509" xml:space="preserve">
<path fill="#FFFFFF" d="M56.07,5c-11.529,0-20.875,9.345-20.875,20.874c0,11.526,9.346,20.874,20.875,20.874
	c11.528,0,20.874-9.347,20.874-20.874C76.945,14.345,67.599,5,56.07,5z M55.28,19.695v1.496v1.497v1.497v1.497v1.497v1.497v1.496
	v1.497v1.249H53.9h-1.498h-1.549v-1.249v-1.497v-1.496V27.18v-1.497v-1.497v-1.38h-1.447h-1.497h-1.496h-1.564v-1.614v-1.496v-0.999
	h1.564h1.496h1.497h1.499h1.497H53.9h1.38V19.695z M66.974,30.173v1.497v1.249h-1.099H64.38h-1.499h-1.495h-1.498h-1.496h-1.847
	v-1.249v-1.497v-1.496V27.18v-1.497v-1.497v-1.497v-1.497v-1.496v-0.999h1.847h1.496h1.397v0.999v1.496v1.497v1.497v1.497v1.497
	v1.632h1.596h1.499h1.496h1.099V30.173z"/>
<g>
	<path fill="#FFFFFF" d="M9.105,63.448H7.93l3.28-7.563h0.961l3.247,7.563h-1.196l-0.769-1.859H9.863L9.105,63.448z M10.237,60.66
		h2.831l-1.41-3.547L10.237,60.66z"/>
	<path fill="#FFFFFF" d="M23.11,62.273c-0.299,0.406-0.687,0.735-1.164,0.988c-0.477,0.253-1.051,0.379-1.72,0.379
		c-0.577,0-1.109-0.098-1.597-0.294c-0.488-0.196-0.908-0.47-1.261-0.822c-0.352-0.353-0.629-0.773-0.828-1.261
		c-0.2-0.488-0.299-1.024-0.299-1.608c0-0.591,0.102-1.13,0.304-1.618c0.203-0.488,0.484-0.904,0.844-1.25
		c0.36-0.345,0.785-0.614,1.277-0.807c0.491-0.192,1.025-0.288,1.602-0.288c0.256,0,0.516,0.025,0.78,0.075
		c0.263,0.05,0.516,0.125,0.759,0.224c0.242,0.1,0.463,0.222,0.662,0.368c0.199,0.146,0.37,0.315,0.513,0.507l-0.833,0.641
		c-0.185-0.256-0.447-0.468-0.785-0.636c-0.338-0.167-0.704-0.251-1.095-0.251c-0.442,0-0.838,0.08-1.191,0.241
		c-0.352,0.16-0.653,0.379-0.903,0.657s-0.441,0.6-0.577,0.966c-0.135,0.367-0.203,0.757-0.203,1.17
		c0,0.428,0.066,0.827,0.198,1.196c0.132,0.371,0.32,0.693,0.566,0.967c0.246,0.274,0.545,0.49,0.897,0.646
		c0.352,0.157,0.746,0.235,1.18,0.235c0.427,0,0.815-0.085,1.164-0.256c0.349-0.171,0.637-0.421,0.866-0.748L23.11,62.273z"/>
	<path fill="#FFFFFF" d="M30.972,62.273c-0.299,0.406-0.687,0.735-1.164,0.988c-0.477,0.253-1.051,0.379-1.72,0.379
		c-0.577,0-1.109-0.098-1.597-0.294c-0.488-0.196-0.908-0.47-1.261-0.822c-0.352-0.353-0.629-0.773-0.828-1.261
		c-0.2-0.488-0.299-1.024-0.299-1.608c0-0.591,0.102-1.13,0.304-1.618c0.203-0.488,0.484-0.904,0.844-1.25
		c0.36-0.345,0.785-0.614,1.277-0.807c0.491-0.192,1.025-0.288,1.602-0.288c0.256,0,0.516,0.025,0.78,0.075
		c0.263,0.05,0.516,0.125,0.759,0.224c0.242,0.1,0.463,0.222,0.662,0.368c0.199,0.146,0.37,0.315,0.513,0.507l-0.833,0.641
		c-0.185-0.256-0.447-0.468-0.785-0.636c-0.338-0.167-0.704-0.251-1.095-0.251c-0.442,0-0.838,0.08-1.191,0.241
		c-0.352,0.16-0.653,0.379-0.903,0.657s-0.441,0.6-0.577,0.966c-0.135,0.367-0.203,0.757-0.203,1.17
		c0,0.428,0.066,0.827,0.198,1.196c0.132,0.371,0.32,0.693,0.566,0.967c0.246,0.274,0.545,0.49,0.897,0.646
		c0.352,0.157,0.746,0.235,1.18,0.235c0.427,0,0.815-0.085,1.164-0.256c0.349-0.171,0.637-0.421,0.866-0.748L30.972,62.273z"/>
	<path fill="#FFFFFF" d="M33.536,62.508h3.952v0.94h-5.01v-7.563h4.85v0.929h-3.792v2.265h3.568v0.908h-3.568V62.508z"/>
	<path fill="#FFFFFF" d="M40.383,62.508h3.376v0.94h-4.433v-7.563h1.058V62.508z"/>
	<path fill="#FFFFFF" d="M46.269,62.508h3.952v0.94h-5.01v-7.563h4.85v0.929h-3.792v2.265h3.568v0.908h-3.568V62.508z"/>
	<path fill="#FFFFFF" d="M53.116,63.448h-1.058v-7.563h2.425c0.363,0,0.709,0.037,1.036,0.112c0.327,0.075,0.614,0.194,0.86,0.358
		c0.245,0.164,0.439,0.379,0.582,0.646c0.142,0.267,0.214,0.593,0.214,0.977c0,0.556-0.171,1.004-0.513,1.346
		c-0.342,0.342-0.783,0.559-1.325,0.651l2.115,3.472h-1.282l-1.923-3.365h-1.132V63.448z M53.116,59.196h1.218
		c0.249,0,0.481-0.022,0.694-0.064c0.214-0.043,0.4-0.112,0.561-0.209c0.16-0.096,0.287-0.22,0.379-0.374
		c0.093-0.153,0.139-0.344,0.139-0.572c0-0.228-0.046-0.418-0.139-0.571c-0.093-0.153-0.215-0.276-0.368-0.369
		c-0.153-0.092-0.333-0.158-0.54-0.198c-0.207-0.039-0.424-0.059-0.652-0.059h-1.293V59.196z"/>
	<path fill="#FFFFFF" d="M66.672,59.655c0,0.584-0.101,1.12-0.304,1.608c-0.203,0.488-0.483,0.908-0.839,1.261
		c-0.356,0.352-0.78,0.627-1.271,0.822c-0.492,0.196-1.026,0.294-1.603,0.294s-1.109-0.098-1.597-0.294
		c-0.488-0.196-0.91-0.47-1.266-0.822c-0.356-0.353-0.634-0.773-0.833-1.261c-0.2-0.488-0.299-1.024-0.299-1.608
		c0-0.591,0.1-1.13,0.299-1.618c0.199-0.488,0.477-0.904,0.833-1.25c0.356-0.345,0.778-0.614,1.266-0.807
		c0.488-0.192,1.02-0.288,1.597-0.288s1.111,0.096,1.603,0.288c0.491,0.192,0.915,0.462,1.271,0.807
		c0.356,0.346,0.636,0.762,0.839,1.25C66.571,58.525,66.672,59.064,66.672,59.655z M65.529,59.655c0-0.413-0.068-0.803-0.203-1.17
		c-0.136-0.366-0.327-0.689-0.577-0.966c-0.249-0.278-0.55-0.497-0.902-0.657c-0.353-0.16-0.75-0.241-1.191-0.241
		c-0.434,0-0.828,0.08-1.18,0.241c-0.353,0.16-0.652,0.379-0.898,0.657c-0.245,0.278-0.436,0.6-0.571,0.966
		c-0.135,0.367-0.203,0.757-0.203,1.17c0,0.421,0.067,0.816,0.203,1.186c0.135,0.37,0.328,0.692,0.577,0.967
		c0.249,0.274,0.548,0.49,0.897,0.646c0.349,0.156,0.741,0.235,1.175,0.235s0.829-0.078,1.186-0.235
		c0.356-0.156,0.659-0.372,0.908-0.646c0.25-0.274,0.441-0.597,0.577-0.967C65.461,60.471,65.529,60.076,65.529,59.655z"/>
	<path fill="#FFFFFF" d="M72.451,61.696h0.022l2.232-5.811h1.645v7.563h-1.058v-6.324h-0.021l-2.511,6.324h-0.673l-2.5-6.324h-0.021
		v6.324h-1.026v-7.563h1.645L72.451,61.696z"/>
	<path fill="#FFFFFF" d="M79.673,62.508h3.952v0.94h-5.01v-7.563h4.85v0.929h-3.792v2.265h3.568v0.908h-3.568V62.508z"/>
	<path fill="#FFFFFF" d="M88.112,63.448h-1.058v-6.634h-2.425v-0.929h5.907v0.929h-2.425V63.448z"/>
	<path fill="#FFFFFF" d="M93.025,62.508h3.952v0.94h-5.01v-7.563h4.85v0.929h-3.793v2.265h3.568v0.908h-3.568V62.508z"/>
	<path fill="#FFFFFF" d="M99.873,63.448h-1.058v-7.563h2.425c0.363,0,0.709,0.037,1.036,0.112c0.327,0.075,0.614,0.194,0.86,0.358
		c0.246,0.164,0.439,0.379,0.582,0.646c0.142,0.267,0.214,0.593,0.214,0.977c0,0.556-0.171,1.004-0.513,1.346
		c-0.342,0.342-0.783,0.559-1.324,0.651l2.115,3.472h-1.282l-1.923-3.365h-1.132V63.448z M99.873,59.196h1.218
		c0.249,0,0.481-0.022,0.694-0.064c0.213-0.043,0.4-0.112,0.561-0.209c0.16-0.096,0.286-0.22,0.379-0.374
		c0.093-0.153,0.139-0.344,0.139-0.572c0-0.228-0.046-0.418-0.139-0.571c-0.093-0.153-0.215-0.276-0.368-0.369
		c-0.153-0.092-0.333-0.158-0.539-0.198c-0.207-0.039-0.424-0.059-0.652-0.059h-1.292V59.196z"/>
</g>
<g>
	<path fill="#FFFFFF" d="M22.618,75.327h3.952v0.94h-5.01v-7.563h4.85v0.929h-3.792v2.265h3.568v0.908h-3.568V75.327z"/>
	<path fill="#FFFFFF" d="M31.058,71.524l1.795-2.82h1.239l-2.414,3.579l2.745,3.984h-1.335l-2.072-3.184l-2.029,3.184h-1.303
		l2.703-4.006l-2.436-3.557h1.293L31.058,71.524z"/>
	<path fill="#FFFFFF" d="M35.971,68.704h2.307c0.406,0,0.776,0.041,1.111,0.123c0.334,0.082,0.619,0.209,0.854,0.379
		c0.235,0.171,0.417,0.388,0.545,0.651c0.128,0.264,0.192,0.581,0.192,0.951c0,0.378-0.069,0.701-0.208,0.971
		c-0.139,0.271-0.331,0.492-0.577,0.662c-0.246,0.171-0.538,0.297-0.876,0.379c-0.338,0.082-0.704,0.123-1.095,0.123h-1.196v3.323
		h-1.058V68.704z M37.029,72.047h1.122c0.256,0,0.493-0.023,0.71-0.069c0.217-0.046,0.404-0.118,0.561-0.214
		c0.156-0.096,0.278-0.222,0.363-0.379c0.085-0.156,0.128-0.349,0.128-0.576c0-0.228-0.044-0.419-0.133-0.572
		c-0.089-0.153-0.21-0.278-0.363-0.374c-0.153-0.096-0.336-0.164-0.55-0.203c-0.214-0.039-0.445-0.059-0.694-0.059h-1.143V72.047z"
		/>
	<path fill="#FFFFFF" d="M43.812,75.327h3.952v0.94h-5.01v-7.563h4.85v0.929h-3.793v2.265h3.568v0.908h-3.568V75.327z"/>
	<path fill="#FFFFFF" d="M50.659,76.267h-1.058v-7.563h2.425c0.363,0,0.709,0.037,1.037,0.112c0.327,0.075,0.614,0.194,0.86,0.358
		c0.245,0.164,0.439,0.379,0.582,0.646c0.142,0.267,0.213,0.593,0.213,0.977c0,0.556-0.171,1.004-0.512,1.346
		c-0.342,0.342-0.784,0.559-1.325,0.651l2.115,3.472h-1.282l-1.923-3.365h-1.133V76.267z M50.659,72.015h1.218
		c0.249,0,0.481-0.022,0.694-0.064c0.214-0.043,0.4-0.112,0.561-0.209c0.16-0.096,0.287-0.22,0.379-0.374
		c0.093-0.153,0.139-0.344,0.139-0.572c0-0.228-0.046-0.418-0.139-0.571c-0.093-0.153-0.216-0.276-0.368-0.369
		c-0.153-0.092-0.333-0.158-0.54-0.198c-0.207-0.039-0.424-0.059-0.651-0.059h-1.293V72.015z"/>
	<path fill="#FFFFFF" d="M57.646,76.267h-1.058v-7.563h1.058V76.267z"/>
	<path fill="#FFFFFF" d="M63.82,74.515h0.022l2.232-5.811h1.645v7.563h-1.058v-6.324H66.64l-2.511,6.324h-0.673l-2.5-6.324h-0.021
		v6.324H59.91v-7.563h1.645L63.82,74.515z"/>
	<path fill="#FFFFFF" d="M71.041,75.327h3.952v0.94h-5.01v-7.563h4.85v0.929h-3.793v2.265h3.568v0.908h-3.568V75.327z"/>
	<path fill="#FFFFFF" d="M82.162,74.75h0.022v-6.046h1.058v7.563h-1.335l-3.995-6.174h-0.022v6.174h-1.058v-7.563h1.378
		L82.162,74.75z"/>
	<path fill="#FFFFFF" d="M88.154,76.267h-1.058v-6.634h-2.425v-0.929h5.907v0.929h-2.425V76.267z"/>
</g>
</svg>
