<?xml version="1.0" encoding="utf-8"?>
<!-- Generator: Adobe Illustrator 17.1.0, SVG Export Plug-In . SVG Version: 6.00 Build 0)  -->
<!DOCTYPE svg PUBLIC "-//W3C//DTD SVG 1.1//EN" "http://www.w3.org/Graphics/SVG/1.1/DTD/svg11.dtd">
<svg version="1.1" id="Layer_1" xmlns="http://www.w3.org/2000/svg" xmlns:xlink="http://www.w3.org/1999/xlink" x="0px" y="0px"
	 viewBox="0 0 349.109 221.588" enable-background="new 0 0 349.109 221.588" xml:space="preserve">
<g>
	<g>
		<path fill="#FFFFFF" d="M81.625,11.237L18.754,156.372H13.64L77.576,9.745H0V5.482h81.625V11.237z"/>
		<path fill="#FFFFFF" d="M193.938,116.732c0,5.54-0.853,10.835-2.558,15.877c-1.705,5.045-4.299,9.521-7.779,13.427
			c-3.483,3.909-7.958,7.032-13.426,9.377c-5.471,2.345-11.972,3.517-19.5,3.517c-9.664,0-18.222-2.205-25.681-6.606
			c-7.459-4.402-13.037-10.23-16.73-17.477l4.476-1.918c3.124,6.537,8.099,11.722,14.918,15.558
			c6.82,3.837,14.492,5.897,23.017,6.181c6.25,0.144,11.792-0.779,16.623-2.771c4.829-1.988,8.878-4.722,12.148-8.205
			c3.267-3.479,5.718-7.565,7.353-12.255c1.632-4.688,2.451-9.66,2.451-14.918c0-6.533-1.392-12.148-4.176-16.837
			c-2.784-4.688-6.314-8.558-10.596-11.615c-4.282-3.054-8.991-5.291-14.129-6.713c-5.138-1.419-9.99-2.131-14.555-2.131h-4.708
			V74.96h4.688c4.545,0,9.058-0.673,13.533-2.024c4.476-1.349,8.525-3.443,12.148-6.287c3.623-2.841,6.57-6.464,8.844-10.869
			c2.271-4.402,3.41-9.73,3.41-15.984c0-4.972-0.853-9.484-2.558-13.533s-4.049-7.493-7.033-10.336
			c-2.983-2.84-6.5-5.042-10.549-6.606c-4.049-1.562-8.418-2.345-13.107-2.345c-6.253,0-12.221,1.352-17.902,4.049
			c-5.685,2.701-10.16,6.537-13.427,11.509l-3.836-2.558c3.693-5.255,8.558-9.411,14.599-12.467
			c6.037-3.054,12.894-4.583,20.566-4.583c5.398,0,10.406,0.853,15.025,2.558c4.616,1.705,8.595,4.156,11.935,7.353
			c3.336,3.197,6,7.07,7.992,11.615c1.988,4.549,2.984,9.664,2.984,15.345c0,4.263-0.609,8.418-1.825,12.468
			c-1.216,4.049-3.11,7.709-5.685,10.976c-2.577,3.271-5.901,6.11-9.977,8.524c-4.076,2.418-8.904,4.05-14.482,4.902v0.426
			c6.427,0.996,12.001,2.771,16.717,5.328s8.611,5.614,11.682,9.164c3.07,3.554,5.358,7.496,6.86,11.828
			C193.186,107.747,193.938,112.186,193.938,116.732z"/>
	</g>
	<path fill="#FFFFFF" d="M220.051,17.854c-4.922,0-8.926-4.004-8.926-8.927S215.129,0,220.051,0c4.922,0,8.927,4.004,8.927,8.927
		S224.974,17.854,220.051,17.854z M220.051,1.879c-3.886,0-7.047,3.162-7.047,7.048s3.162,7.048,7.047,7.048
		c3.886,0,7.048-3.162,7.048-7.048S223.938,1.879,220.051,1.879z"/>
	<g>
		<path fill="#FFFFFF" d="M7.312,194.305h7.597c0.959,0,1.932,0.102,2.916,0.306c0.983,0.204,1.865,0.553,2.646,1.044
			c0.779,0.492,1.416,1.158,1.908,1.998c0.491,0.84,0.738,1.896,0.738,3.168c0,1.345-0.411,2.515-1.231,3.51
			c-0.82,0.996-1.918,1.65-3.293,1.962v0.072c1.653,0.192,3.023,0.834,4.113,1.926c1.09,1.093,1.635,2.574,1.635,4.446
			c0,1.057-0.222,2.022-0.665,2.897c-0.443,0.877-1.071,1.62-1.886,2.232s-1.809,1.086-2.982,1.422
			c-1.173,0.337-2.49,0.504-3.95,0.504H7.312V194.305z M9.904,205.464h5.221c0.623,0,1.254-0.071,1.89-0.216
			c0.636-0.144,1.218-0.39,1.746-0.738c0.527-0.347,0.954-0.81,1.278-1.386c0.323-0.576,0.485-1.283,0.485-2.124
			c0-0.815-0.162-1.506-0.485-2.069c-0.324-0.564-0.763-1.026-1.314-1.387c-0.553-0.359-1.2-0.617-1.944-0.773
			s-1.536-0.234-2.376-0.234h-4.5V205.464z M9.904,217.561h4.824c0.937,0,1.83-0.09,2.683-0.271c0.852-0.18,1.596-0.468,2.231-0.864
			c0.636-0.396,1.146-0.911,1.53-1.548c0.384-0.636,0.576-1.397,0.576-2.286c0-1.679-0.57-2.934-1.71-3.762
			c-1.141-0.828-2.754-1.242-4.843-1.242H9.904V217.561z"/>
		<path fill="#FFFFFF" d="M32.799,219.792h-2.592v-25.487h2.592V219.792z"/>
		<path fill="#FFFFFF" d="M58.899,198.912c-0.888-0.936-1.943-1.661-3.168-2.178c-1.224-0.516-2.628-0.774-4.212-0.774
			c-1.632,0-3.103,0.3-4.41,0.899c-1.309,0.599-2.418,1.407-3.33,2.426s-1.614,2.198-2.105,3.54
			c-0.492,1.342-0.738,2.756-0.738,4.241c0,1.486,0.246,2.899,0.738,4.241c0.491,1.342,1.193,2.516,2.105,3.522
			c0.912,1.006,2.021,1.809,3.33,2.408c1.308,0.599,2.778,0.898,4.41,0.898c1.44,0,2.76-0.156,3.96-0.469
			c1.2-0.312,2.172-0.707,2.916-1.188v-7.74h-5.939v-2.304h8.531v11.514c-1.392,0.842-2.892,1.468-4.5,1.876
			c-1.607,0.409-3.275,0.614-5.004,0.614c-1.92,0-3.696-0.337-5.328-1.008c-1.632-0.672-3.036-1.603-4.212-2.79
			c-1.176-1.188-2.094-2.598-2.754-4.23c-0.66-1.632-0.99-3.42-0.99-5.364c0-1.943,0.336-3.731,1.009-5.363
			c0.671-1.632,1.602-3.042,2.79-4.23c1.188-1.188,2.592-2.118,4.212-2.79s3.378-1.008,5.273-1.008c2.04,0,3.816,0.305,5.328,0.915
			c1.512,0.609,2.808,1.456,3.888,2.541L58.899,198.912z"/>
		<path fill="#FFFFFF" d="M88.959,198.408c-0.553-0.768-1.261-1.386-2.124-1.854c-0.864-0.469-1.908-0.702-3.133-0.702
			c-0.624,0-1.26,0.096-1.907,0.288c-0.648,0.192-1.236,0.485-1.765,0.882c-0.528,0.396-0.954,0.895-1.277,1.494
			c-0.324,0.6-0.486,1.308-0.486,2.124c0,0.815,0.155,1.488,0.466,2.016c0.312,0.528,0.725,0.979,1.239,1.35
			c0.515,0.373,1.102,0.679,1.76,0.918c0.657,0.24,1.346,0.48,2.063,0.721c0.886,0.288,1.776,0.6,2.675,0.936
			c0.897,0.337,1.705,0.774,2.424,1.314c0.718,0.54,1.304,1.224,1.759,2.052c0.454,0.828,0.683,1.878,0.683,3.15
			c0,1.271-0.243,2.37-0.729,3.294s-1.115,1.686-1.89,2.285c-0.775,0.601-1.66,1.045-2.656,1.332
			c-0.996,0.288-1.998,0.433-3.006,0.433c-0.769,0-1.536-0.078-2.304-0.234c-0.769-0.156-1.501-0.391-2.196-0.702
			c-0.696-0.312-1.345-0.707-1.944-1.188s-1.128-1.032-1.584-1.656l2.232-1.656c0.552,0.913,1.325,1.675,2.321,2.286
			c0.996,0.612,2.166,0.918,3.511,0.918c0.647,0,1.308-0.102,1.979-0.306s1.278-0.516,1.818-0.937
			c0.54-0.419,0.983-0.936,1.332-1.548c0.348-0.611,0.521-1.325,0.521-2.142c0-0.888-0.174-1.626-0.521-2.214
			c-0.349-0.588-0.811-1.08-1.386-1.477c-0.576-0.396-1.236-0.726-1.98-0.989c-0.744-0.265-1.524-0.528-2.34-0.792
			c-0.841-0.265-1.669-0.564-2.484-0.9s-1.548-0.774-2.195-1.314c-0.648-0.54-1.17-1.206-1.566-1.998
			c-0.396-0.792-0.594-1.764-0.594-2.916c0-1.224,0.245-2.279,0.737-3.168c0.492-0.887,1.135-1.619,1.927-2.195
			s1.668-0.996,2.628-1.261c0.959-0.264,1.908-0.396,2.844-0.396c1.728,0,3.204,0.306,4.428,0.918
			c1.225,0.612,2.147,1.338,2.772,2.178L88.959,198.408z"/>
		<path fill="#FFFFFF" d="M106.311,220.44c-1.921,0-3.492-0.33-4.716-0.99c-1.225-0.66-2.196-1.494-2.916-2.502
			c-0.721-1.008-1.219-2.106-1.494-3.294c-0.276-1.188-0.414-2.31-0.414-3.366v-15.983h2.592V210c0,1.032,0.12,2.034,0.36,3.006
			c0.239,0.973,0.63,1.836,1.17,2.593c0.54,0.756,1.254,1.367,2.142,1.836c0.888,0.468,1.98,0.702,3.276,0.702
			s2.388-0.234,3.275-0.702c0.888-0.469,1.603-1.08,2.143-1.836c0.54-0.757,0.93-1.62,1.17-2.593
			c0.239-0.972,0.359-1.974,0.359-3.006v-15.695h2.593v15.983c0,1.057-0.139,2.178-0.414,3.366
			c-0.276,1.188-0.774,2.286-1.494,3.294s-1.698,1.842-2.935,2.502S108.207,220.44,106.311,220.44z"/>
		<path fill="#FFFFFF" d="M125.066,219.792h-2.592v-25.487h7.488c1.247,0,2.405,0.12,3.474,0.359c1.068,0.24,1.992,0.63,2.772,1.17
			c0.779,0.54,1.386,1.242,1.817,2.106c0.433,0.864,0.648,1.92,0.648,3.168c0,0.936-0.168,1.788-0.504,2.556
			c-0.337,0.769-0.792,1.435-1.368,1.998c-0.576,0.564-1.26,1.015-2.052,1.351s-1.656,0.552-2.592,0.647l7.451,12.132h-3.168
			l-7.056-11.916h-4.32V219.792z M125.066,205.645h4.5c2.089,0,3.696-0.378,4.824-1.135c1.128-0.756,1.692-1.89,1.692-3.401
			c0-0.84-0.156-1.548-0.468-2.124c-0.312-0.576-0.744-1.044-1.297-1.404c-0.552-0.359-1.224-0.624-2.016-0.792
			c-0.792-0.167-1.668-0.252-2.628-0.252h-4.608V205.645z"/>
	</g>
	<g>
		<path fill="#FFFFFF" d="M198.803,206.29c-0.486-0.658-1.118-1.14-1.898-1.443c-0.78-0.303-1.543-0.455-2.288-0.455
			c-0.953,0-1.82,0.174-2.6,0.521c-0.78,0.347-1.452,0.823-2.016,1.43c-0.563,0.607-0.997,1.317-1.3,2.132
			c-0.304,0.815-0.455,1.699-0.455,2.652c0,1.006,0.147,1.924,0.442,2.756c0.294,0.832,0.715,1.547,1.261,2.146
			c0.546,0.598,1.2,1.062,1.963,1.391s1.621,0.494,2.574,0.494c0.988,0,1.863-0.195,2.626-0.585s1.378-0.905,1.846-1.547
			l2.626,1.846c-0.814,1.023-1.812,1.816-2.989,2.379c-1.18,0.563-2.558,0.845-4.135,0.845c-1.438,0-2.76-0.238-3.965-0.715
			s-2.24-1.144-3.106-2.002c-0.867-0.857-1.543-1.88-2.028-3.067s-0.729-2.5-0.729-3.939c0-1.473,0.256-2.804,0.768-3.991
			c0.511-1.187,1.213-2.196,2.105-3.028s1.946-1.474,3.159-1.925c1.213-0.45,2.53-0.676,3.952-0.676
			c0.589,0,1.205,0.057,1.846,0.169c0.642,0.113,1.257,0.286,1.847,0.521c0.589,0.233,1.144,0.524,1.664,0.871
			c0.52,0.347,0.962,0.763,1.325,1.248L198.803,206.29z"/>
		<path fill="#FFFFFF" d="M210.113,201.974h2.834l7.931,18.408h-3.744l-1.717-4.212h-7.981l-1.664,4.212h-3.666L210.113,201.974z
			 M214.273,213.362l-2.834-7.488l-2.886,7.488H214.273z"/>
		<path fill="#FFFFFF" d="M223.737,201.974h3.275v15.496h7.826v2.912h-11.102V201.974z"/>
		<path fill="#FFFFFF" d="M238.063,201.974h3.275v18.408h-3.275V201.974z"/>
		<path fill="#FFFFFF" d="M246.435,201.974h11.882v2.86h-8.606v5.044h8.112v2.756h-8.112v7.748h-3.275V201.974z"/>
		<path fill="#FFFFFF" d="M261.488,211.126c0-1.473,0.247-2.804,0.741-3.991c0.494-1.187,1.179-2.196,2.055-3.028
			c0.875-0.832,1.915-1.474,3.119-1.925c1.205-0.45,2.518-0.676,3.939-0.676c1.438,0,2.765,0.226,3.978,0.676
			c1.214,0.451,2.263,1.093,3.146,1.925s1.573,1.842,2.067,3.028c0.493,1.188,0.74,2.519,0.74,3.991c0,1.439-0.247,2.752-0.74,3.939
			c-0.494,1.188-1.184,2.21-2.067,3.067c-0.884,0.858-1.933,1.525-3.146,2.002c-1.213,0.477-2.539,0.715-3.978,0.715
			c-1.422,0-2.734-0.238-3.939-0.715c-1.204-0.477-2.244-1.144-3.119-2.002c-0.876-0.857-1.561-1.88-2.055-3.067
			S261.488,212.565,261.488,211.126z M265.05,211.126c0,0.988,0.151,1.894,0.455,2.717c0.303,0.824,0.736,1.539,1.3,2.146
			s1.23,1.079,2.002,1.417s1.625,0.507,2.562,0.507c0.936,0,1.794-0.169,2.573-0.507c0.78-0.338,1.452-0.811,2.016-1.417
			c0.562-0.606,0.996-1.321,1.3-2.146c0.303-0.823,0.455-1.729,0.455-2.717c0-0.953-0.152-1.837-0.455-2.652
			c-0.304-0.814-0.732-1.524-1.287-2.132c-0.555-0.606-1.222-1.083-2.002-1.43s-1.646-0.521-2.6-0.521
			c-0.954,0-1.816,0.174-2.588,0.521c-0.771,0.347-1.434,0.823-1.988,1.43c-0.556,0.607-0.984,1.317-1.287,2.132
			C265.202,209.289,265.05,210.173,265.05,211.126z"/>
		<path fill="#FFFFFF" d="M285.487,201.974h6.396c0.867,0,1.707,0.092,2.522,0.273c0.814,0.182,1.538,0.481,2.171,0.897
			s1.14,0.962,1.521,1.638c0.382,0.676,0.572,1.499,0.572,2.47c0,1.335-0.377,2.423-1.131,3.263
			c-0.754,0.842-1.781,1.409-3.081,1.703l4.914,8.164h-3.952l-4.264-7.8h-2.393v7.8h-3.275V201.974z M291.441,209.904
			c0.468,0,0.936-0.035,1.403-0.104c0.468-0.068,0.889-0.199,1.262-0.39c0.372-0.19,0.68-0.464,0.923-0.819
			c0.242-0.354,0.363-0.81,0.363-1.364c0-0.503-0.112-0.914-0.338-1.235c-0.226-0.32-0.511-0.576-0.857-0.768
			c-0.348-0.19-0.741-0.32-1.184-0.39c-0.441-0.069-0.871-0.104-1.287-0.104h-2.964v5.174H291.441z"/>
		<path fill="#FFFFFF" d="M302.88,201.974h4.342l8.554,13.78h0.052v-13.78h3.276v18.408h-4.16l-8.735-14.222h-0.053v14.222h-3.275
			V201.974z"/>
		<path fill="#FFFFFF" d="M324.201,201.974h3.275v18.408h-3.275V201.974z"/>
		<path fill="#FFFFFF" d="M338.344,201.974h2.834l7.931,18.408h-3.744l-1.717-4.212h-7.981l-1.664,4.212h-3.666L338.344,201.974z
			 M342.504,213.362l-2.834-7.488l-2.886,7.488H342.504z"/>
	</g>
	<rect x="160.849" y="189.887" fill="#FFFFFF" width="2" height="31.701"/>
</g>
</svg>
