<?xml version="1.0" encoding="utf-8"?>
<!-- Generator: Adobe Illustrator 17.1.0, SVG Export Plug-In . SVG Version: 6.00 Build 0)  -->
<!DOCTYPE svg PUBLIC "-//W3C//DTD SVG 1.1//EN" "http://www.w3.org/Graphics/SVG/1.1/DTD/svg11.dtd">
<svg version="1.1" id="Layer_1" xmlns="http://www.w3.org/2000/svg" xmlns:xlink="http://www.w3.org/1999/xlink" x="0px" y="0px"
	 viewBox="0 0 531.743 139.06" enable-background="new 0 0 531.743 139.06" xml:space="preserve">
<g>
	<g>
		<path fill="#FFFFFF" d="M275.024,77.705c-0.198,0-0.396,0.006-0.592,0.018c-1.203-3.379-4.431-5.746-8.154-5.746
			c-0.333,0-0.862,0.023-1.392,0.079c-2.103-1.719-4.392-2.558-6.969-2.558c-5.634,0-10.224,3.992-11.244,9.622
			c-2.417,1.578-3.984,4.169-3.984,6.706c0,4.478,3.716,8.121,8.284,8.121h24.051c4.7,0,8.673-3.719,8.673-8.121
			C283.697,81.425,279.725,77.705,275.024,77.705z M275.024,90.224h-24.051c-2.816,0-4.559-2.281-4.559-4.396
			c0-1.442,1.16-3.043,2.822-3.893l0.898-0.459l0.105-1.004c0.444-4.2,3.672-7.249,7.678-7.249c1.933,0,3.515,0.669,5.13,2.17
			l0.728,0.678l0.969-0.23c0.302-0.072,1.048-0.139,1.533-0.139c2.497,0,4.602,1.867,4.896,4.344l0.253,2.127l2.072-0.547
			c0.494-0.131,1.008-0.197,1.524-0.197c2.833,0,4.949,2.322,4.949,4.398C279.974,87.903,277.857,90.224,275.024,90.224z"/>
		<path fill="#FFFFFF" d="M271.656,71.707c3.711,0,6.73-3.02,6.73-6.73c0-3.711-3.02-6.73-6.73-6.73c-3.712,0-6.73,3.02-6.73,6.73
			C264.926,68.687,267.944,71.707,271.656,71.707z M271.656,61.97c1.656,0,3.006,1.349,3.006,3.006s-1.35,3.006-3.006,3.006
			c-1.658,0-3.007-1.348-3.007-3.006S269.998,61.97,271.656,61.97z"/>
		<path fill="#FFFFFF" d="M271.669,55.403c1.028,0,1.862-0.833,1.862-1.862v-4.006c0-1.029-0.834-1.862-1.862-1.862
			c-1.028,0-1.862,0.833-1.862,1.862v4.006C269.807,54.57,270.641,55.403,271.669,55.403z"/>
		<path fill="#FFFFFF" d="M287.328,63.333h-4.005c-1.028,0-1.862,0.833-1.862,1.862c0,1.028,0.834,1.862,1.862,1.862h4.005
			c1.029,0,1.862-0.834,1.862-1.862C289.19,64.167,288.357,63.333,287.328,63.333z"/>
		<path fill="#FFFFFF" d="M256.007,67.058h4.007c1.027,0,1.862-0.834,1.862-1.862c0-1.029-0.835-1.862-1.862-1.862h-4.007
			c-1.028,0-1.862,0.833-1.862,1.862C254.144,66.224,254.978,67.058,256.007,67.058z"/>
		<path fill="#FFFFFF" d="M279.91,58.817c0.477,0,0.953-0.182,1.317-0.546l2.831-2.833c0.728-0.727,0.728-1.906,0-2.633
			c-0.726-0.727-1.906-0.727-2.633,0l-2.832,2.833c-0.728,0.728-0.728,1.907,0,2.633C278.957,58.635,279.434,58.817,279.91,58.817z"
			/>
		<path fill="#FFFFFF" d="M262.111,58.27c0.363,0.364,0.84,0.545,1.316,0.545c0.477,0,0.954-0.182,1.317-0.545
			c0.727-0.728,0.727-1.907-0.001-2.634l-2.832-2.832c-0.728-0.727-1.907-0.727-2.635,0c-0.726,0.729-0.726,1.907,0.001,2.634
			L262.111,58.27z"/>
		<path fill="#FFFFFF" d="M281.227,72.12c-0.728-0.727-1.906-0.727-2.634,0c-0.728,0.727-0.728,1.906-0.001,2.633l2.833,2.834
			c0.363,0.362,0.84,0.544,1.316,0.544c0.477,0,0.953-0.182,1.316-0.544c0.728-0.728,0.728-1.907,0.001-2.634L281.227,72.12z"/>
	</g>
	<g>
		<path fill="#FFFFFF" d="M517.577,77.705c-0.198,0-0.396,0.006-0.592,0.018c-1.203-3.379-4.431-5.746-8.154-5.746
			c-0.333,0-0.862,0.023-1.392,0.079c-2.103-1.719-4.392-2.558-6.969-2.558c-5.634,0-10.224,3.992-11.244,9.622
			c-2.417,1.578-3.984,4.169-3.984,6.706c0,4.478,3.716,8.121,8.284,8.121h24.051c4.7,0,8.673-3.719,8.673-8.121
			C526.25,81.425,522.277,77.705,517.577,77.705z M517.577,90.224h-24.051c-2.816,0-4.56-2.281-4.56-4.396
			c0-1.442,1.16-3.043,2.822-3.893l0.898-0.459l0.105-1.004c0.444-4.2,3.672-7.249,7.678-7.249c1.933,0,3.515,0.669,5.13,2.17
			l0.728,0.678l0.969-0.23c0.302-0.072,1.048-0.139,1.533-0.139c2.497,0,4.602,1.867,4.897,4.344l0.253,2.127l2.072-0.547
			c0.494-0.131,1.008-0.197,1.524-0.197c2.833,0,4.949,2.322,4.949,4.398C522.526,87.903,520.41,90.224,517.577,90.224z"/>
		<path fill="#FFFFFF" d="M514.209,71.707c3.711,0,6.73-3.02,6.73-6.73c0-3.711-3.019-6.73-6.73-6.73c-3.712,0-6.73,3.02-6.73,6.73
			C507.479,68.687,510.497,71.707,514.209,71.707z M514.209,61.97c1.656,0,3.006,1.349,3.006,3.006s-1.35,3.006-3.006,3.006
			c-1.658,0-3.007-1.348-3.007-3.006S512.551,61.97,514.209,61.97z"/>
		<path fill="#FFFFFF" d="M514.222,55.403c1.028,0,1.862-0.833,1.862-1.862v-4.006c0-1.029-0.834-1.862-1.862-1.862
			c-1.028,0-1.862,0.833-1.862,1.862v4.006C512.359,54.57,513.193,55.403,514.222,55.403z"/>
		<path fill="#FFFFFF" d="M529.881,63.333h-4.005c-1.028,0-1.862,0.833-1.862,1.862c0,1.028,0.834,1.862,1.862,1.862h4.005
			c1.029,0,1.862-0.834,1.862-1.862C531.743,64.167,530.91,63.333,529.881,63.333z"/>
		<path fill="#FFFFFF" d="M498.56,67.058h4.007c1.027,0,1.862-0.834,1.862-1.862c0-1.029-0.835-1.862-1.862-1.862h-4.007
			c-1.028,0-1.862,0.833-1.862,1.862C496.697,66.224,497.531,67.058,498.56,67.058z"/>
		<path fill="#FFFFFF" d="M522.463,58.817c0.477,0,0.953-0.182,1.317-0.546l2.831-2.833c0.727-0.727,0.727-1.906,0-2.633
			c-0.726-0.727-1.906-0.727-2.633,0l-2.832,2.833c-0.728,0.728-0.728,1.907,0,2.633C521.51,58.635,521.986,58.817,522.463,58.817z"
			/>
		<path fill="#FFFFFF" d="M504.664,58.27c0.363,0.364,0.84,0.545,1.316,0.545c0.477,0,0.954-0.182,1.317-0.545
			c0.727-0.728,0.727-1.907-0.001-2.634l-2.832-2.832c-0.728-0.727-1.907-0.727-2.635,0c-0.726,0.729-0.726,1.907,0.001,2.634
			L504.664,58.27z"/>
		<path fill="#FFFFFF" d="M523.78,72.12c-0.727-0.727-1.906-0.727-2.634,0c-0.728,0.727-0.728,1.906-0.001,2.633l2.833,2.834
			c0.363,0.362,0.84,0.544,1.316,0.544c0.477,0,0.953-0.182,1.316-0.544c0.727-0.728,0.727-1.907,0.001-2.634L523.78,72.12z"/>
	</g>
	<g>
		<path fill="#FFFFFF" d="M23.373,62.051c-4.809,0-8.72,3.912-8.72,8.72c0,4.808,3.911,8.719,8.72,8.719
			c4.808,0,8.719-3.911,8.719-8.719C32.092,65.962,28.181,62.051,23.373,62.051z M23.373,75.765c-2.754,0-4.995-2.24-4.995-4.994
			c0-2.754,2.241-4.996,4.995-4.996c2.754,0,4.994,2.242,4.994,4.996C28.367,73.525,26.127,75.765,23.373,75.765z"/>
		<path fill="#FFFFFF" d="M44.912,68.949h-8.464c-1.028,0-1.862,0.834-1.862,1.862c0,1.029,0.834,1.862,1.862,1.862h8.464
			c1.028,0,1.862-0.833,1.862-1.862C46.774,69.782,45.94,68.949,44.912,68.949z"/>
		<path fill="#FFFFFF" d="M12.188,70.811c0-1.028-0.833-1.862-1.861-1.862H1.862C0.834,68.949,0,69.782,0,70.811
			c0,1.029,0.834,1.862,1.862,1.862h8.464C11.354,72.673,12.188,71.839,12.188,70.811z"/>
		<path fill="#FFFFFF" d="M23.386,59.613c1.028,0,1.862-0.834,1.862-1.862v-8.464c0-1.028-0.834-1.862-1.862-1.862
			c-1.028,0-1.862,0.834-1.862,1.862v8.464C21.523,58.779,22.357,59.613,23.386,59.613z"/>
		<path fill="#FFFFFF" d="M23.386,82.009c-1.028,0-1.862,0.834-1.862,1.862v8.464c0,1.029,0.834,1.862,1.862,1.862
			c1.028,0,1.862-0.833,1.862-1.862v-8.464C25.248,82.843,24.414,82.009,23.386,82.009z"/>
		<path fill="#FFFFFF" d="M32.898,63.162c0.476,0,0.952-0.182,1.316-0.545l5.984-5.984c0.728-0.728,0.728-1.907,0-2.633
			c-0.728-0.729-1.905-0.729-2.633,0l-5.985,5.984c-0.728,0.728-0.728,1.907,0,2.633C31.945,62.98,32.422,63.162,32.898,63.162z"/>
		<path fill="#FFFFFF" d="M12.56,79.004l-5.984,5.985c-0.728,0.727-0.728,1.906,0,2.634c0.363,0.363,0.84,0.545,1.316,0.545
			s0.953-0.182,1.316-0.545l5.985-5.985c0.728-0.727,0.728-1.906,0-2.634C14.466,78.277,13.287,78.277,12.56,79.004z"/>
		<path fill="#FFFFFF" d="M34.215,79.004c-0.727-0.727-1.906-0.727-2.634,0c-0.728,0.728-0.728,1.907,0,2.634l5.985,5.985
			c0.363,0.363,0.84,0.545,1.316,0.545c0.477,0,0.953-0.182,1.316-0.545c0.728-0.728,0.728-1.907,0-2.634L34.215,79.004z"/>
		<path fill="#FFFFFF" d="M12.56,62.616c0.364,0.364,0.841,0.545,1.317,0.545c0.476,0,0.952-0.182,1.316-0.545
			c0.728-0.727,0.728-1.906,0-2.633l-5.985-5.984c-0.727-0.729-1.905-0.729-2.633,0c-0.728,0.727-0.728,1.906,0,2.633L12.56,62.616z
			"/>
	</g>
	<g>
		<path fill="#FFFFFF" d="M387.202,62.051c-4.809,0-8.72,3.912-8.72,8.72c0,4.808,3.911,8.719,8.72,8.719
			c4.808,0,8.719-3.911,8.719-8.719C395.921,65.962,392.01,62.051,387.202,62.051z M387.202,75.765c-2.754,0-4.995-2.24-4.995-4.994
			c0-2.754,2.241-4.996,4.995-4.996s4.994,2.242,4.994,4.996C392.196,73.525,389.956,75.765,387.202,75.765z"/>
		<path fill="#FFFFFF" d="M408.741,68.949h-8.464c-1.028,0-1.862,0.834-1.862,1.862c0,1.029,0.834,1.862,1.862,1.862h8.464
			c1.028,0,1.862-0.833,1.862-1.862C410.603,69.782,409.77,68.949,408.741,68.949z"/>
		<path fill="#FFFFFF" d="M376.017,70.811c0-1.028-0.833-1.862-1.861-1.862h-8.464c-1.028,0-1.862,0.834-1.862,1.862
			c0,1.029,0.834,1.862,1.862,1.862h8.464C375.184,72.673,376.017,71.839,376.017,70.811z"/>
		<path fill="#FFFFFF" d="M387.215,59.613c1.028,0,1.862-0.834,1.862-1.862v-8.464c0-1.028-0.834-1.862-1.862-1.862
			c-1.028,0-1.862,0.834-1.862,1.862v8.464C385.352,58.779,386.186,59.613,387.215,59.613z"/>
		<path fill="#FFFFFF" d="M387.215,82.009c-1.028,0-1.862,0.834-1.862,1.862v8.464c0,1.029,0.834,1.862,1.862,1.862
			c1.028,0,1.862-0.833,1.862-1.862v-8.464C389.077,82.843,388.243,82.009,387.215,82.009z"/>
		<path fill="#FFFFFF" d="M396.727,63.162c0.476,0,0.952-0.182,1.316-0.545l5.984-5.984c0.728-0.728,0.728-1.907,0-2.633
			c-0.728-0.729-1.905-0.729-2.633,0l-5.985,5.984c-0.728,0.728-0.728,1.907,0,2.633C395.774,62.98,396.251,63.162,396.727,63.162z"
			/>
		<path fill="#FFFFFF" d="M376.389,79.004l-5.984,5.985c-0.728,0.727-0.728,1.906,0,2.634c0.363,0.363,0.84,0.545,1.316,0.545
			c0.477,0,0.953-0.182,1.316-0.545l5.985-5.985c0.728-0.727,0.728-1.906,0-2.634C378.295,78.277,377.116,78.277,376.389,79.004z"/>
		<path fill="#FFFFFF" d="M398.044,79.004c-0.727-0.727-1.906-0.727-2.634,0c-0.728,0.728-0.728,1.907,0,2.634l5.985,5.985
			c0.363,0.363,0.84,0.545,1.316,0.545c0.477,0,0.953-0.182,1.316-0.545c0.728-0.728,0.728-1.907,0-2.634L398.044,79.004z"/>
		<path fill="#FFFFFF" d="M376.389,62.616c0.364,0.364,0.841,0.545,1.317,0.545c0.476,0,0.952-0.182,1.316-0.545
			c0.728-0.727,0.728-1.906,0-2.633l-5.985-5.984c-0.727-0.729-1.905-0.729-2.633,0c-0.728,0.727-0.728,1.906,0,2.633
			L376.389,62.616z"/>
	</g>
	<g>
		<path fill="#FFFFFF" d="M145.336,77.288c0.318,0.037,0.635,0.056,0.949,0.056c4.148,0,7.637-3.112,8.114-7.239
			c0.251-2.169-0.357-4.306-1.713-6.02c-1.356-1.712-3.299-2.793-5.469-3.044c-4.543-0.529-8.553,2.744-9.065,7.182
			C137.634,72.702,140.855,76.768,145.336,77.288z M141.852,68.651c0.26-2.247,2.159-3.941,4.417-3.941
			c0.172,0,0.346,0.01,0.521,0.03c1.182,0.137,2.238,0.726,2.977,1.659c0.739,0.933,1.071,2.097,0.935,3.279
			c-0.279,2.418-2.464,4.199-4.936,3.911C143.324,73.305,141.569,71.091,141.852,68.651z"/>
		<path fill="#FFFFFF" d="M166.193,69.634l-7.743-0.898c-1.029-0.115-1.946,0.614-2.065,1.636c-0.118,1.022,0.613,1.946,1.636,2.065
			l7.743,0.896c0.074,0.008,0.146,0.013,0.218,0.013c0.932,0,1.737-0.699,1.848-1.647C167.947,70.676,167.215,69.752,166.193,69.634
			z"/>
		<path fill="#FFFFFF" d="M126.377,68.77l7.744,0.897c0.072,0.008,0.145,0.013,0.216,0.013c0.934,0,1.738-0.7,1.848-1.648
			c0.118-1.021-0.614-1.946-1.636-2.064l-7.743-0.896c-1.023-0.114-1.945,0.614-2.064,1.635
			C124.623,67.728,125.356,68.652,126.377,68.77z"/>
		<path fill="#FFFFFF" d="M147.454,59.102c0.073,0.008,0.145,0.013,0.217,0.013c0.933,0,1.737-0.699,1.848-1.647l0.896-7.745
			c0.118-1.022-0.612-1.946-1.635-2.065c-1.028-0.117-1.945,0.615-2.063,1.636l-0.898,7.744
			C145.699,58.06,146.433,58.983,147.454,59.102z"/>
		<path fill="#FFFFFF" d="M155.996,63.37c0.406,0,0.813-0.131,1.155-0.402l6.11-4.841c0.807-0.639,0.942-1.81,0.304-2.617
			c-0.64-0.806-1.811-0.941-2.617-0.303l-6.11,4.841c-0.806,0.639-0.941,1.811-0.303,2.616
			C154.903,63.129,155.447,63.37,155.996,63.37z"/>
		<path fill="#FFFFFF" d="M155.439,77.754c-0.639-0.806-1.809-0.942-2.615-0.303c-0.807,0.64-0.942,1.811-0.304,2.616l4.842,6.11
			c0.367,0.464,0.912,0.706,1.461,0.706c0.405,0,0.813-0.132,1.155-0.403c0.806-0.639,0.941-1.81,0.303-2.616L155.439,77.754z"/>
		<path fill="#FFFFFF" d="M137.133,60.649c0.367,0.463,0.911,0.706,1.46,0.706c0.405,0,0.812-0.132,1.154-0.403
			c0.807-0.639,0.942-1.81,0.304-2.616l-4.842-6.11c-0.638-0.806-1.811-0.943-2.616-0.303c-0.806,0.638-0.941,1.81-0.303,2.616
			L137.133,60.649z"/>
		<path fill="#FFFFFF" d="M144.269,81.656c-0.006,0-0.01,0-0.015,0c-1.011-2.332-3.333-3.932-5.99-3.932
			c-0.173,0-0.458,0.008-0.774,0.034c-1.5-1.167-3.132-1.736-4.966-1.736c-4.075,0-7.41,2.826-8.245,6.843
			c-1.701,1.201-2.793,3.092-2.793,4.95c0,3.397,2.813,6.161,6.271,6.161h16.513c3.543,0,6.538-2.821,6.538-6.161
			C150.807,84.476,147.812,81.656,144.269,81.656z M144.269,90.251h-16.513c-1.572,0-2.546-1.265-2.546-2.437
			c0-0.754,0.696-1.679,1.621-2.152l0.898-0.459l0.105-1.004c0.276-2.622,2.204-4.453,4.689-4.453c1.185,0,2.119,0.398,3.125,1.333
			l0.729,0.679l0.969-0.229c0.148-0.036,0.618-0.08,0.917-0.08c1.418,0,2.614,1.06,2.782,2.468l0.253,2.125l2.069-0.545
			c0.295-0.077,0.597-0.116,0.9-0.116c1.609,0,2.814,1.285,2.814,2.435S145.878,90.251,144.269,90.251z"/>
	</g>
	<g>
		<g>
			<path fill="#FFFFFF" d="M2.88,120.184h12.506v2.86l-7.358,15.548H4.362l7.748-15.6H2.88V120.184z"/>
			<path fill="#FFFFFF" d="M31.583,122.993H24.07l-0.182,3.978c0.294-0.087,0.646-0.147,1.053-0.182
				c0.407-0.035,0.776-0.053,1.105-0.053c0.901,0,1.738,0.131,2.509,0.391c0.771,0.26,1.443,0.637,2.015,1.131
				c0.572,0.494,1.018,1.101,1.339,1.82c0.32,0.719,0.481,1.547,0.481,2.482c0,1.023-0.178,1.938-0.533,2.743
				c-0.355,0.806-0.836,1.486-1.443,2.041c-0.607,0.555-1.317,0.979-2.132,1.274c-0.815,0.294-1.682,0.441-2.6,0.441
				c-1.543,0-2.843-0.359-3.9-1.079c-1.058-0.719-1.829-1.703-2.314-2.95l2.834-1.04c0.26,0.728,0.693,1.312,1.3,1.755
				c0.606,0.441,1.326,0.663,2.158,0.663c0.468,0,0.91-0.078,1.326-0.234s0.78-0.381,1.092-0.676s0.559-0.663,0.741-1.105
				c0.182-0.441,0.273-0.939,0.273-1.495c0-0.71-0.121-1.3-0.364-1.768c-0.243-0.468-0.559-0.845-0.949-1.131
				c-0.39-0.286-0.828-0.485-1.313-0.599c-0.485-0.112-0.979-0.169-1.482-0.169c-0.347,0-0.715,0.026-1.105,0.078
				s-0.771,0.126-1.144,0.222c-0.373,0.095-0.737,0.203-1.092,0.324c-0.355,0.122-0.672,0.252-0.949,0.391l0.312-10.062h10.478
				V122.993z"/>
		</g>
		<ellipse fill="none" stroke="#FFFFFF" stroke-miterlimit="10" cx="42.044" cy="123.592" rx="2.676" ry="2.569"/>
	</g>
	<g>
		<g>
			<path fill="#FFFFFF" d="M11.803,0.288h7.312v1.76h-5.296v3.104h4.992v1.696h-4.992v4.768h-2.016V0.288z"/>
			<path fill="#FFFFFF" d="M21.611,0.288h3.936c0.533,0,1.05,0.056,1.552,0.168s0.947,0.296,1.336,0.552
				c0.39,0.257,0.702,0.593,0.936,1.009c0.235,0.416,0.352,0.922,0.352,1.52c0,0.821-0.232,1.491-0.696,2.008
				c-0.464,0.518-1.096,0.867-1.896,1.048l3.024,5.024h-2.432l-2.624-4.8h-1.472v4.8h-2.016V0.288z M25.275,5.168
				c0.288,0,0.576-0.021,0.864-0.063c0.288-0.043,0.546-0.123,0.776-0.24s0.419-0.285,0.568-0.504
				c0.149-0.219,0.224-0.499,0.224-0.84c0-0.31-0.07-0.562-0.208-0.761c-0.139-0.197-0.315-0.354-0.528-0.472
				s-0.456-0.197-0.728-0.24c-0.272-0.042-0.536-0.063-0.792-0.063h-1.824v3.184H25.275z"/>
			<path fill="#FFFFFF" d="M32.315,0.288h2.016v11.328h-2.016V0.288z"/>
		</g>
	</g>
	<g>
		<g>
			<path fill="#FFFFFF" d="M136.615,2.656c-0.213-0.277-0.515-0.51-0.903-0.696c-0.39-0.187-0.782-0.279-1.177-0.279
				c-0.234,0-0.469,0.029-0.703,0.088c-0.235,0.059-0.448,0.149-0.641,0.271c-0.191,0.123-0.35,0.283-0.472,0.48
				c-0.123,0.197-0.185,0.435-0.185,0.712c0,0.256,0.054,0.475,0.16,0.656c0.106,0.181,0.254,0.336,0.44,0.464
				s0.413,0.239,0.68,0.336c0.267,0.096,0.561,0.191,0.88,0.288c0.362,0.117,0.738,0.25,1.128,0.399s0.747,0.347,1.072,0.592
				c0.325,0.246,0.592,0.556,0.8,0.929s0.312,0.837,0.312,1.392c0,0.608-0.112,1.139-0.336,1.592
				c-0.225,0.454-0.523,0.83-0.896,1.128c-0.373,0.299-0.811,0.523-1.312,0.673c-0.502,0.148-1.03,0.224-1.584,0.224
				c-0.736,0-1.456-0.136-2.16-0.408c-0.704-0.271-1.28-0.675-1.729-1.208l1.44-1.344c0.277,0.384,0.647,0.688,1.112,0.912
				c0.464,0.224,0.92,0.336,1.367,0.336c0.235,0,0.475-0.029,0.721-0.088c0.245-0.059,0.466-0.157,0.664-0.296
				c0.197-0.139,0.356-0.312,0.479-0.521s0.185-0.467,0.185-0.775c0-0.299-0.07-0.547-0.208-0.744
				c-0.139-0.197-0.326-0.368-0.561-0.513c-0.234-0.144-0.512-0.269-0.832-0.376c-0.319-0.106-0.656-0.218-1.008-0.336
				c-0.342-0.106-0.683-0.234-1.024-0.384c-0.341-0.149-0.647-0.347-0.92-0.592c-0.271-0.245-0.493-0.547-0.664-0.904
				c-0.17-0.357-0.256-0.803-0.256-1.336c0-0.576,0.12-1.072,0.36-1.488s0.555-0.76,0.944-1.031
				c0.389-0.272,0.832-0.475,1.327-0.608c0.496-0.133,1-0.2,1.513-0.2c0.576,0,1.16,0.102,1.752,0.305
				c0.592,0.202,1.106,0.506,1.544,0.911L136.615,2.656z"/>
			<path fill="#FFFFFF" d="M144.215,0.288h1.744l4.88,11.328h-2.304l-1.056-2.592h-4.912l-1.024,2.592h-2.256L144.215,0.288z
				 M146.775,7.296l-1.744-4.607l-1.776,4.607H146.775z"/>
			<path fill="#FFFFFF" d="M153.928,2.048h-3.473v-1.76h8.96v1.76h-3.472v9.568h-2.016V2.048z"/>
		</g>
	</g>
	<g>
		<g>
			<path fill="#FFFFFF" d="M255.46,2.656c-0.214-0.277-0.515-0.51-0.904-0.696s-0.781-0.279-1.176-0.279
				c-0.234,0-0.47,0.029-0.704,0.088s-0.448,0.149-0.64,0.271c-0.192,0.123-0.35,0.283-0.473,0.48
				c-0.122,0.197-0.184,0.435-0.184,0.712c0,0.256,0.053,0.475,0.16,0.656c0.106,0.181,0.253,0.336,0.439,0.464
				s0.413,0.239,0.681,0.336c0.267,0.096,0.56,0.191,0.88,0.288c0.362,0.117,0.738,0.25,1.128,0.399
				c0.389,0.149,0.746,0.347,1.072,0.592c0.325,0.246,0.592,0.556,0.8,0.929s0.312,0.837,0.312,1.392
				c0,0.608-0.111,1.139-0.336,1.592c-0.224,0.454-0.522,0.83-0.895,1.128c-0.374,0.299-0.812,0.523-1.312,0.673
				c-0.501,0.148-1.029,0.224-1.584,0.224c-0.736,0-1.456-0.136-2.16-0.408c-0.704-0.271-1.279-0.675-1.728-1.208l1.439-1.344
				c0.277,0.384,0.648,0.688,1.112,0.912c0.464,0.224,0.92,0.336,1.368,0.336c0.234,0,0.475-0.029,0.72-0.088
				s0.467-0.157,0.664-0.296s0.357-0.312,0.48-0.521c0.122-0.208,0.184-0.467,0.184-0.775c0-0.299-0.069-0.547-0.208-0.744
				s-0.325-0.368-0.56-0.513c-0.235-0.144-0.513-0.269-0.832-0.376c-0.32-0.106-0.656-0.218-1.009-0.336
				c-0.341-0.106-0.683-0.234-1.023-0.384c-0.342-0.149-0.648-0.347-0.92-0.592c-0.272-0.245-0.494-0.547-0.664-0.904
				c-0.171-0.357-0.256-0.803-0.256-1.336c0-0.576,0.12-1.072,0.359-1.488c0.24-0.416,0.555-0.76,0.944-1.031
				c0.39-0.272,0.832-0.475,1.328-0.608c0.496-0.133,1-0.2,1.512-0.2c0.576,0,1.16,0.102,1.752,0.305
				c0.592,0.202,1.106,0.506,1.544,0.911L255.46,2.656z"/>
			<path fill="#FFFFFF" d="M268.531,7.456c0,0.683-0.117,1.299-0.352,1.849c-0.235,0.549-0.555,1.016-0.96,1.399
				s-0.886,0.68-1.44,0.888s-1.157,0.312-1.808,0.312c-0.651,0-1.254-0.104-1.809-0.312s-1.037-0.504-1.447-0.888
				c-0.411-0.384-0.731-0.851-0.96-1.399c-0.229-0.55-0.345-1.166-0.345-1.849V0.288h2.017v7.088c0,0.331,0.042,0.659,0.128,0.984
				c0.085,0.325,0.227,0.616,0.424,0.872s0.459,0.464,0.784,0.624s0.728,0.24,1.208,0.24c0.479,0,0.883-0.08,1.208-0.24
				s0.586-0.368,0.784-0.624c0.197-0.256,0.338-0.547,0.424-0.872c0.085-0.325,0.128-0.653,0.128-0.984V0.288h2.016V7.456z"/>
			<path fill="#FFFFFF" d="M271.571,0.288h2.672l5.265,8.48h0.031v-8.48h2.017v11.328h-2.561l-5.376-8.752h-0.031v8.752h-2.017
				V0.288z"/>
		</g>
	</g>
	<g>
		<g>
			<path fill="#FFFFFF" d="M367.112,0.288h3.152l2.944,8.048h0.048l2.912-8.048h3.168v11.328h-2V2.513h-0.032l-3.44,9.104h-1.408
				l-3.392-9.104h-0.032v9.104h-1.92V0.288z"/>
			<path fill="#FFFFFF" d="M381.929,5.92c0-0.906,0.151-1.725,0.456-2.456c0.304-0.73,0.725-1.352,1.264-1.863
				c0.538-0.513,1.179-0.907,1.92-1.185S387.117,0,387.992,0c0.886,0,1.701,0.139,2.448,0.416c0.746,0.277,1.392,0.672,1.936,1.185
				c0.544,0.512,0.969,1.133,1.272,1.863c0.304,0.731,0.456,1.55,0.456,2.456c0,0.886-0.152,1.693-0.456,2.424
				c-0.304,0.731-0.729,1.36-1.272,1.889c-0.544,0.527-1.189,0.938-1.936,1.231c-0.747,0.294-1.562,0.44-2.448,0.44
				c-0.875,0-1.683-0.146-2.424-0.44c-0.741-0.293-1.382-0.704-1.92-1.231c-0.539-0.528-0.96-1.157-1.264-1.889
				C382.08,7.613,381.929,6.806,381.929,5.92z M384.12,5.92c0,0.608,0.094,1.166,0.28,1.672c0.187,0.507,0.453,0.947,0.8,1.32
				c0.347,0.374,0.758,0.664,1.232,0.872s1,0.312,1.576,0.312c0.575,0,1.104-0.104,1.584-0.312c0.479-0.208,0.893-0.498,1.239-0.872
				c0.347-0.373,0.613-0.813,0.801-1.32c0.187-0.506,0.279-1.063,0.279-1.672c0-0.586-0.093-1.13-0.279-1.632
				c-0.188-0.501-0.451-0.938-0.792-1.312c-0.342-0.374-0.753-0.667-1.232-0.88c-0.48-0.214-1.014-0.32-1.6-0.32
				c-0.587,0-1.118,0.106-1.593,0.32c-0.475,0.213-0.883,0.506-1.224,0.88c-0.342,0.373-0.605,0.811-0.792,1.312
				C384.214,4.79,384.12,5.334,384.12,5.92z"/>
			<path fill="#FFFFFF" d="M396.696,0.288h2.672l5.265,8.48h0.031v-8.48h2.017v11.328h-2.561l-5.376-8.752h-0.031v8.752h-2.017
				V0.288z"/>
		</g>
	</g>
	<g>
		<g>
			<path fill="#FFFFFF" d="M491.021,2.048h-3.472v-1.76h8.959v1.76h-3.472v9.568h-2.016V2.048z"/>
			<path fill="#FFFFFF" d="M507.485,7.456c0,0.683-0.117,1.299-0.352,1.849c-0.235,0.549-0.555,1.016-0.961,1.399
				c-0.404,0.384-0.885,0.68-1.439,0.888s-1.158,0.312-1.809,0.312s-1.253-0.104-1.808-0.312s-1.037-0.504-1.448-0.888
				c-0.41-0.384-0.73-0.851-0.959-1.399c-0.23-0.55-0.345-1.166-0.345-1.849V0.288h2.017v7.088c0,0.331,0.042,0.659,0.127,0.984
				c0.086,0.325,0.227,0.616,0.425,0.872c0.197,0.256,0.458,0.464,0.784,0.624c0.324,0.16,0.728,0.24,1.207,0.24
				c0.48,0,0.883-0.08,1.209-0.24c0.324-0.16,0.586-0.368,0.783-0.624s0.339-0.547,0.424-0.872c0.086-0.325,0.129-0.653,0.129-0.984
				V0.288h2.016V7.456z"/>
			<path fill="#FFFFFF" d="M510.524,0.288h7.504v1.76h-5.487v2.88h5.2v1.696h-5.2v3.2h5.776v1.792h-7.793V0.288z"/>
			<path fill="#FFFFFF" d="M526.7,2.656c-0.213-0.277-0.514-0.51-0.903-0.696s-0.782-0.279-1.177-0.279
				c-0.234,0-0.469,0.029-0.703,0.088s-0.448,0.149-0.641,0.271c-0.191,0.123-0.35,0.283-0.472,0.48s-0.185,0.435-0.185,0.712
				c0,0.256,0.054,0.475,0.16,0.656c0.107,0.181,0.254,0.336,0.44,0.464s0.413,0.239,0.681,0.336
				c0.266,0.096,0.56,0.191,0.879,0.288c0.363,0.117,0.738,0.25,1.129,0.399c0.389,0.149,0.746,0.347,1.072,0.592
				c0.324,0.246,0.592,0.556,0.799,0.929c0.209,0.373,0.312,0.837,0.312,1.392c0,0.608-0.111,1.139-0.336,1.592
				c-0.225,0.454-0.523,0.83-0.896,1.128c-0.373,0.299-0.811,0.523-1.312,0.673c-0.501,0.148-1.03,0.224-1.584,0.224
				c-0.736,0-1.456-0.136-2.16-0.408c-0.704-0.271-1.28-0.675-1.728-1.208l1.439-1.344c0.277,0.384,0.648,0.688,1.112,0.912
				c0.464,0.224,0.92,0.336,1.368,0.336c0.234,0,0.475-0.029,0.72-0.088s0.466-0.157,0.664-0.296
				c0.197-0.139,0.356-0.312,0.479-0.521s0.185-0.467,0.185-0.775c0-0.299-0.069-0.547-0.208-0.744s-0.326-0.368-0.561-0.513
				c-0.234-0.144-0.512-0.269-0.832-0.376c-0.319-0.106-0.656-0.218-1.008-0.336c-0.342-0.106-0.683-0.234-1.023-0.384
				c-0.342-0.149-0.648-0.347-0.92-0.592c-0.272-0.245-0.494-0.547-0.664-0.904c-0.171-0.357-0.256-0.803-0.256-1.336
				c0-0.576,0.119-1.072,0.359-1.488s0.555-0.76,0.944-1.031c0.39-0.272,0.832-0.475,1.327-0.608c0.496-0.133,1-0.2,1.513-0.2
				c0.576,0,1.16,0.102,1.752,0.305c0.592,0.202,1.106,0.506,1.544,0.911L526.7,2.656z"/>
		</g>
	</g>
	<g>
		<g>
			<path fill="#FFFFFF" d="M133.772,120.184l-4.706,6.812l0.026,0.025c0.242-0.104,0.55-0.182,0.923-0.233
				c0.373-0.053,0.715-0.078,1.027-0.078c0.814,0,1.577,0.151,2.288,0.455c0.71,0.304,1.334,0.719,1.872,1.248
				c0.537,0.528,0.958,1.152,1.261,1.872c0.303,0.719,0.455,1.495,0.455,2.326c0,0.972-0.173,1.855-0.52,2.652
				c-0.347,0.798-0.819,1.479-1.417,2.041c-0.598,0.563-1.309,0.997-2.132,1.3c-0.823,0.304-1.703,0.455-2.639,0.455
				c-0.971,0-1.863-0.16-2.678-0.48c-0.815-0.321-1.525-0.768-2.132-1.339c-0.607-0.572-1.079-1.244-1.417-2.016
				c-0.338-0.771-0.507-1.599-0.507-2.482c0-0.521,0.043-1.01,0.13-1.47c0.087-0.459,0.212-0.9,0.377-1.325s0.364-0.854,0.598-1.287
				s0.498-0.885,0.793-1.353l4.602-7.124H133.772z M126.648,132.82c0,0.486,0.082,0.945,0.247,1.379
				c0.165,0.433,0.403,0.814,0.715,1.144s0.685,0.59,1.118,0.78s0.918,0.286,1.456,0.286c1.057,0,1.911-0.334,2.561-1.001
				c0.65-0.668,0.975-1.548,0.975-2.64c0-0.52-0.083-1.001-0.247-1.442c-0.165-0.442-0.403-0.819-0.715-1.132
				c-0.312-0.312-0.681-0.559-1.105-0.74c-0.425-0.183-0.897-0.273-1.417-0.273s-1.001,0.087-1.443,0.26
				c-0.442,0.174-0.823,0.421-1.144,0.741c-0.321,0.321-0.568,0.707-0.741,1.157C126.735,131.79,126.648,132.284,126.648,132.82z"/>
			<path fill="#FFFFFF" d="M148.253,134.77h-8.502v-2.756l7.826-11.83h3.744v11.908h2.574v2.678h-2.574v3.822h-3.068V134.77z
				 M148.253,123.85h-0.052l-5.226,8.242h5.278V123.85z"/>
		</g>
		<ellipse fill="none" stroke="#FFFFFF" stroke-miterlimit="10" cx="163.845" cy="123.592" rx="2.676" ry="2.569"/>
	</g>
	<g>
		<g>
			<path fill="#FFFFFF" d="M255.571,120.184l-4.706,6.812l0.026,0.025c0.242-0.104,0.55-0.182,0.923-0.233
				c0.373-0.053,0.715-0.078,1.027-0.078c0.814,0,1.577,0.151,2.288,0.455c0.71,0.304,1.334,0.719,1.872,1.248
				c0.537,0.528,0.958,1.152,1.261,1.872c0.303,0.719,0.455,1.495,0.455,2.326c0,0.972-0.173,1.855-0.52,2.652
				c-0.347,0.798-0.819,1.479-1.417,2.041c-0.598,0.563-1.309,0.997-2.132,1.3c-0.823,0.304-1.703,0.455-2.639,0.455
				c-0.971,0-1.863-0.16-2.678-0.48c-0.815-0.321-1.525-0.768-2.132-1.339c-0.607-0.572-1.079-1.244-1.417-2.016
				c-0.338-0.771-0.507-1.599-0.507-2.482c0-0.521,0.043-1.01,0.13-1.47c0.087-0.459,0.212-0.9,0.377-1.325s0.364-0.854,0.598-1.287
				s0.498-0.885,0.793-1.353l4.602-7.124H255.571z M248.447,132.82c0,0.486,0.082,0.945,0.247,1.379
				c0.165,0.433,0.403,0.814,0.715,1.144s0.685,0.59,1.118,0.78s0.918,0.286,1.456,0.286c1.057,0,1.911-0.334,2.561-1.001
				c0.65-0.668,0.975-1.548,0.975-2.64c0-0.52-0.083-1.001-0.247-1.442c-0.165-0.442-0.403-0.819-0.715-1.132
				c-0.312-0.312-0.681-0.559-1.105-0.74c-0.425-0.183-0.897-0.273-1.417-0.273s-1.001,0.087-1.443,0.26
				c-0.442,0.174-0.823,0.421-1.144,0.741c-0.321,0.321-0.568,0.707-0.741,1.157C248.534,131.79,248.447,132.284,248.447,132.82z"/>
			<path fill="#FFFFFF" d="M265.373,138.592l4.732-6.838l-0.026-0.026c-0.26,0.122-0.576,0.208-0.949,0.261
				c-0.373,0.052-0.715,0.077-1.027,0.077c-0.815,0-1.578-0.151-2.288-0.455c-0.711-0.303-1.335-0.719-1.872-1.247
				c-0.538-0.529-0.958-1.153-1.261-1.872c-0.303-0.72-0.455-1.495-0.455-2.327c0-0.971,0.173-1.854,0.52-2.652
				c0.346-0.797,0.819-1.478,1.417-2.041c0.598-0.562,1.309-0.996,2.132-1.3c0.823-0.303,1.703-0.455,2.639-0.455
				c0.954,0,1.841,0.16,2.666,0.481c0.822,0.32,1.538,0.767,2.145,1.339c0.606,0.571,1.079,1.243,1.417,2.015
				s0.507,1.599,0.507,2.483c0,0.52-0.043,1.01-0.13,1.469s-0.213,0.901-0.377,1.326c-0.165,0.425-0.364,0.854-0.598,1.287
				c-0.234,0.433-0.499,0.884-0.793,1.352l-4.603,7.124H265.373z M272.497,125.957c0-0.485-0.082-0.944-0.247-1.378
				s-0.403-0.819-0.715-1.157c-0.312-0.338-0.685-0.606-1.118-0.806s-0.919-0.3-1.456-0.3c-1.058,0-1.911,0.343-2.561,1.027
				s-0.975,1.573-0.975,2.665c0,0.52,0.082,1.001,0.247,1.443c0.165,0.441,0.403,0.818,0.715,1.131
				c0.312,0.312,0.68,0.559,1.105,0.741c0.425,0.182,0.897,0.272,1.417,0.272s1.001-0.087,1.444-0.26
				c0.441-0.173,0.822-0.42,1.144-0.741c0.32-0.32,0.567-0.706,0.741-1.157C272.41,126.988,272.497,126.494,272.497,125.957z"/>
		</g>
		<ellipse fill="none" stroke="#FFFFFF" stroke-miterlimit="10" cx="284.598" cy="123.592" rx="2.676" ry="2.569"/>
	</g>
	<g>
		<g>
			<path fill="#FFFFFF" d="M366.424,120.184h12.506v2.86l-7.358,15.548h-3.666l7.748-15.6h-9.229V120.184z"/>
			<path fill="#FFFFFF" d="M396.427,129.388c0,1.491-0.143,2.834-0.429,4.03s-0.702,2.21-1.248,3.042s-1.223,1.474-2.028,1.924
				s-1.729,0.676-2.769,0.676s-1.968-0.226-2.782-0.676c-0.815-0.45-1.5-1.092-2.054-1.924c-0.556-0.832-0.976-1.846-1.262-3.042
				c-0.285-1.196-0.429-2.539-0.429-4.03c0-1.49,0.144-2.834,0.429-4.03c0.286-1.195,0.706-2.21,1.262-3.042
				c0.554-0.832,1.238-1.473,2.054-1.924c0.814-0.45,1.742-0.676,2.782-0.676s1.963,0.226,2.769,0.676
				c0.806,0.451,1.482,1.092,2.028,1.924s0.962,1.847,1.248,3.042C396.284,126.554,396.427,127.898,396.427,129.388z
				 M393.228,129.388c0-0.641-0.039-1.369-0.116-2.184c-0.078-0.814-0.234-1.586-0.469-2.314c-0.233-0.728-0.567-1.339-1.001-1.833
				s-0.997-0.741-1.689-0.741c-0.711,0-1.283,0.247-1.716,0.741c-0.434,0.494-0.768,1.105-1.002,1.833
				c-0.233,0.729-0.394,1.5-0.48,2.314s-0.13,1.543-0.13,2.184c0,0.642,0.043,1.369,0.13,2.185c0.087,0.814,0.247,1.577,0.48,2.287
				c0.234,0.711,0.568,1.313,1.002,1.808c0.433,0.494,1.005,0.741,1.716,0.741c0.692,0,1.256-0.247,1.689-0.741
				s0.768-1.097,1.001-1.808c0.234-0.71,0.391-1.473,0.469-2.287C393.189,130.757,393.228,130.03,393.228,129.388z"/>
		</g>
		<ellipse fill="none" stroke="#FFFFFF" stroke-miterlimit="10" cx="406.16" cy="123.592" rx="2.676" ry="2.569"/>
	</g>
	<g>
		<g>
			<path fill="#FFFFFF" d="M498.445,120.184l-4.706,6.812l0.026,0.025c0.242-0.104,0.55-0.182,0.923-0.233
				c0.372-0.053,0.715-0.078,1.026-0.078c0.814,0,1.577,0.151,2.288,0.455s1.335,0.719,1.872,1.248
				c0.537,0.528,0.958,1.152,1.262,1.872c0.303,0.719,0.454,1.495,0.454,2.326c0,0.972-0.173,1.855-0.52,2.652
				c-0.347,0.798-0.819,1.479-1.417,2.041c-0.598,0.563-1.309,0.997-2.132,1.3c-0.823,0.304-1.703,0.455-2.64,0.455
				c-0.971,0-1.863-0.16-2.678-0.48c-0.814-0.321-1.525-0.768-2.132-1.339c-0.606-0.572-1.079-1.244-1.417-2.016
				c-0.338-0.771-0.507-1.599-0.507-2.482c0-0.521,0.043-1.01,0.13-1.47c0.087-0.459,0.212-0.9,0.377-1.325
				c0.164-0.425,0.364-0.854,0.598-1.287c0.234-0.434,0.498-0.885,0.793-1.353l4.603-7.124H498.445z M491.321,132.82
				c0,0.486,0.082,0.945,0.247,1.379c0.164,0.433,0.403,0.814,0.715,1.144c0.312,0.329,0.685,0.59,1.118,0.78
				c0.433,0.19,0.918,0.286,1.456,0.286c1.057,0,1.911-0.334,2.561-1.001c0.65-0.668,0.976-1.548,0.976-2.64
				c0-0.52-0.083-1.001-0.247-1.442c-0.165-0.442-0.403-0.819-0.715-1.132c-0.312-0.312-0.681-0.559-1.105-0.74
				c-0.425-0.183-0.896-0.273-1.417-0.273c-0.52,0-1.001,0.087-1.443,0.26c-0.441,0.174-0.823,0.421-1.144,0.741
				c-0.321,0.321-0.568,0.707-0.741,1.157C491.408,131.79,491.321,132.284,491.321,132.82z"/>
			<path fill="#FFFFFF" d="M505.205,120.184h12.506v2.86l-7.358,15.548h-3.666l7.748-15.6h-9.23V120.184z"/>
		</g>
		<ellipse fill="none" stroke="#FFFFFF" stroke-miterlimit="10" cx="526.83" cy="123.592" rx="2.676" ry="2.569"/>
	</g>
</g>
</svg>
